<svg xmlns="http://www.w3.org/2000/svg" viewBox="0 0 200 200"><defs><style>.cls-1,.cls-4{fill:#407bff}.cls-5{fill:#fff}.cls-4,.cls-5,.cls-6{isolation:isolate}.cls-4{opacity:.4}.cls-5{opacity:.7}.cls-6{opacity:.2}</style></defs><g id="Camada_2" data-name="Camada 2"><g id="Camada_1-2" data-name="Camada 1"><path class="cls-1" d="M39.46 69.16q1.55-3 3.35-5.8a68 68 0 0188.13-23.8l1.12.56a67.86 67.86 0 0119.31 15.37 68 68 0 11-111.9 13.6z"/><path d="M39.46 69.16q1.55-3 3.35-5.8a68 68 0 0188.13-23.8l1.12.56a67.86 67.86 0 0119.31 15.37 68 68 0 11-111.9 13.6z" style="isolation:isolate" fill="#fff" opacity=".6"/><path class="cls-4" d="M59.06 134.65c-1.19-.48-2.42.64-3.24 1.67l-3.69 4.57c1.57 2.06.08 4.5-1.78 5.72a68 68 0 01-10.9-77.44 64.73 64.73 0 013.34-5.8H43c2 .08 2.61 2.16 3.45 3.6.18.32 2.88 4 3.18 3.49a18.15 18.15 0 00-2.23 4.86.55.55 0 000 .4c.15.28.56.1.81-.13.56-.56 1.06-1.27 1.68-1.81a2.85 2.85 0 011-.66 2.77 2.77 0 011.22-.12c.81.14 1.44.8 2.23 1.08a3.27 3.27 0 001.49.08 3.37 3.37 0 001.39-.56 11.16 11.16 0 002.12-2c-.14 2.31 2.66 2.27 3.11 4.4.15.7.27 1.67 1 1.73s1.24-.86 1.88-.62c.46.16.52.79.37 1.24a4.63 4.63 0 00-.48 1.35 1.14 1.14 0 00.09.48 1.07 1.07 0 00.28.41 1.13 1.13 0 00.41.27 1.37 1.37 0 00.49.09 4.11 4.11 0 001.6-.81c.52-.31 1.33-.37 1.6.17a.88.88 0 01.08.42c0 1-1 1.75-1.92 2.18a5 5 0 00-2.52 1.67.76.76 0 00.22.25.85.85 0 00.94.08 1.1 1.1 0 01.4-.24c.33-.08.56.29.75.58a6.16 6.16 0 003.72 2.86l3.18-5.35c.43.2.69.3 1.07 0a64.63 64.63 0 002.08 6.16 1.35 1.35 0 01.17.76 6.47 6.47 0 01-.4.72c-.37.82.6 1.59 1.41 2 .17.25-.17.55-.47.55a6.54 6.54 0 00-.89-.07 1.14 1.14 0 00-.54.38 1.16 1.16 0 00-.24.61 3 3 0 00.54 2.2 3 3 0 001.92 1.19.9.9 0 00.56-.06c.36-.2.37-.69.52-1.07.6-1.5 2-.37 2.47.39a5 5 0 01.13 3.84c-.4 1.29-3.6 9.61-.41 9.89a1.32 1.32 0 00.84-.27c.75-.52 1.17-1.39 1.84-2s1.9-.85 2.4-.09c.2.3.23.69.41 1 .49.89 1.87.85 2.5 1.67a8.6 8.6 0 01.59 1.27c.21.41.72.77 1.11.56s.45-1 .88-1.27 1.12.16 1.16.71a1.3 1.3 0 01-.27.76 1.37 1.37 0 01-.64.5 1.86 1.86 0 00-.74.41c-.33.4-.1 1 .14 1.45l1.15 2.17a1.14 1.14 0 01-.58.38 1.16 1.16 0 01-.69 0c-.46-.1-.88-.32-1.35-.4-2.23-.36-3.72 2.49-5.94.63a1.43 1.43 0 00.23-.59 1.36 1.36 0 00-.06-.63 1.42 1.42 0 00-.34-.53 1.26 1.26 0 00-.53-.32c-1-.25-2.32.75-3.09 0-.28-.25-.37-.66-.66-.9-.77-.67-1.92.46-2.47.91-1.82 1.5-.66 2.4-1.6 4.09-.43.77-1.36 1.11-1.91 1.83s-.63 1.51-1.11 2.17c-1.29 1.84-3.28-.72-4.31-1.54 0 1.44-1.6 2.31-3 2.56-2.18.37-1.86.41-3 2a1.38 1.38 0 01-.55.52 1.36 1.36 0 01-.74.16c-.89-.12-1.23-1.24-2-1.73-.36-.23-.81-.31-1.15-.55-.9-.69-.61-2.07-.86-3.17a3.13 3.13 0 00-.66-1.31 3.07 3.07 0 00-1.19-.85 6.69 6.69 0 00-.8 1.52l1.12 1.89a4.27 4.27 0 01.72 1.78 3.28 3.28 0 00.1 1.08c.26.66 1.11.8 1.79 1.09 1.59.7 3.61 3 4.85 4.24s1.29 2.76 2.49 4a.78.78 0 01.09.21.6.6 0 010 .23.54.54 0 01-.1.2.62.62 0 01-.18.14 1.15 1.15 0 01-.89 0 3.22 3.22 0 01-1.65-1.23c.52.77-2.53 1.43-3 1.31-.71-.19-1.31-1.11-1.93-1.47-1.56-.91-2.65-1.07-2.5 1.21 0 .87.08 1.95-.69 2.36a1.14 1.14 0 00-.68-.32 1.1 1.1 0 00-.73.19 2.33 2.33 0 00-.89 1.22 1.53 1.53 0 00-.11 1 2.54 2.54 0 01.2.52c.06.61-.8.77-1.4.71M147.8 93c-.3-.63-1.16-.69-1.86-.62s-1.5.16-2-.35l1.12-2.18a.65.65 0 00.09-.43.7.7 0 00-.15-.19.42.42 0 00-.2-.1l-1.42-.66c-.61.22.2 1.3-.24 1.77-.2.21-.53.17-.82.17-2.43 0-2.33 2.79-2.07 4.39.31 1.86-.7 3.65-1.67 5.27-.35.56-.77 1.2-1.43 1.35a4.74 4.74 0 01-1.94-.34c-1.12-.23-2.29.28-3.44.26-4.06-.09-4.39-4.65-1.92-6.83 1.27-1.11 1.37-.73 1.84-2.4.2-.7.79-1.33.36-2.1a1.2 1.2 0 00-.47-.45 1.23 1.23 0 00-.62-.17 1.25 1.25 0 00-.63.15 1.2 1.2 0 00-.48.44 5.44 5.44 0 00-1.15 2.44 10.28 10.28 0 00-3.07-1.75 1.36 1.36 0 01-.49.6 1.47 1.47 0 01-.73.29 1.57 1.57 0 01-.77-.11A1.51 1.51 0 01123 91c.27-.46.48-1.17 0-1.41a.7.7 0 00-.45-.06c-.65 0-1.29.19-1.94.16-1 0-3.21-1.41-4.13-.52-.16.15-.26.36-.44.51a1.06 1.06 0 01-.67.2 1 1 0 01-.64-.29 1.39 1.39 0 01-.32-.64 1.32 1.32 0 010-.71 7.32 7.32 0 00.34-.9c.38-1.67-1.72-1.29-2.18-2a13.88 13.88 0 01-.13-3.85 3.79 3.79 0 01-1.68.41 3.71 3.71 0 01-1.7-.38c-1.11-.66-1.15-1.84-.82-3.1s1.06-2.75 1.25-3.75c.1-.56.28-1.16.79-1.35s1.43.39 2 0a1.75 1.75 0 00.42-.48 2.41 2.41 0 013.35-.32c.47 0 .74-.56 1-1s.7-.84 1.12-.65.4 1 .13 1.46a6 6 0 01-1 1.35 2.05 2.05 0 00-.69 1 1.62 1.62 0 00.24.91 3.61 3.61 0 001.46 1.72 1.56 1.56 0 002-.44 4.25 4.25 0 01.29-.56c.35-.39 1-.25 1.45 0a4.58 4.58 0 001.29.89c.51.15 1.2-.26 1-.76.73.1 1.68.45 1.6 1.19a2.16 2.16 0 01-.26.65c-.66 1.31 0 4 1.79 3.23 1.19-.51.78-2.79 2.46-2.84.8 0 1.48.72 2.28.68.31-.13.14-.6-.11-.83a3 3 0 00-1.39-.71 3.1 3.1 0 00-1.57.07c0-1 1.17-1.77.81-2.64s-1.9-.87-2-1.79a1.46 1.46 0 01.18-.77c.52-1.22 2-3.18.45-4.23a2.73 2.73 0 01-.56-.4c-.45-.52 0-1.31.39-1.86.76.06 1.18.86 1.62 1.49s1.35 1.18 1.89.63c.38-.38.32-1.14.82-1.36.24-.1.52 0 .74-.16.53-.31.06-1.12.21-1.73.2-.82 1.42-.78 2.14-.34s1.42 1.12 2.23 1c.26 0 .51-.17.76-.23a3.49 3.49 0 012.36.55c1.18.56 1-5.57 1.14-5.89 1-2.33 3.85-2.33 5.9-3.06a15 15 0 003-1.63 68.57 68.57 0 0113.17 66.07 21.46 21.46 0 01-1.15 3c-1.17-1.11-2.78-3.25-4.61-3.14-2.33.15-2.41 3.45-4.87 3.16-.5-.27.08-1 0-1.59a2 2 0 00-.48-.81c-.19-.26-.29-.65-.05-.87-.27-.55-1.12-.45-1.72-.27a4.12 4.12 0 01-2.23.12c-1.5-.41-2.23-2-3.12-3.32a21.1 21.1 0 00-2.46-2.81c.51.31 1.15-.28 1.2-.87a5.74 5.74 0 00-.36-1.74c-.21-1 .65-1.57.56-2.56-.11-1.22-.91-2.46-.45-3.59.56-1.38 2.46-1.46 3.94-1.31.12-1.83-1.12-3.76-.27-5.38a4.75 4.75 0 011.48-1.48l3.45-2.57a1.89 1.89 0 00.42-3.25l-1.32-1.84a1.59 1.59 0 00-.69-.62 1.35 1.35 0 00-1 .17 7.25 7.25 0 00-3.63 3.84 29 29 0 01-5.31-5c-.42 1.35-1.64 2.44-1.85 3.79M92.69 77.13a2.85 2.85 0 00-1.12.37 2.77 2.77 0 00-.85.82 10.78 10.78 0 00-.53 1.37 1.35 1.35 0 01-.41.59 1.37 1.37 0 01-.66.3c-.63 0-1-.63-1.32-1.18a2 2 0 01-.33-1.4 8.38 8.38 0 01.53-1 3.25 3.25 0 00-.28-2.14c-.21-.7-.22-1.64.42-2 .42-.23 1-.11 1.41-.32 1.06-.52.56-2.28 1.46-2.79 1.12-.59 2.36.66 3 1.56a9.17 9.17 0 011 3.14c.62 2.95.18 2.32-2.32 2.68zM86.61 33.46c14.64-3.5 31.07-.68 44.34 6.1l1.11.56c.72 2.87-.29 7.08-4.11 6-.19.37 0 .56 0 1 0 .63-.75 1-1.38.91-2.06-.18-4.1-1.29-5 1.12-1.12 2.91 1.12 1.84 2 3.57a3.9 3.9 0 01.19.82c.25 1 1.31 1.56 2.26 2a1.2 1.2 0 01.16-.46 1.26 1.26 0 01.33-.36 1.16 1.16 0 01.44-.19 1 1 0 01.49 0 2 2 0 00.72.16c.53-.07.56-.88.23-1.29s-.88-.6-1.27-1-.52-1.12 0-1.37a1.06 1.06 0 01.66 0 3.07 3.07 0 011.22.68 2.84 2.84 0 01.75 1.17 1.18 1.18 0 011.45-.14 1.18 1.18 0 01.47.61 1.13 1.13 0 010 .77c-.26.72-1.19 1.39-.76 2a1.58 1.58 0 00-.82-.4 1.66 1.66 0 00-.91.09c-2.26.92-3.51 5.37-6.85 2.79a16.38 16.38 0 00-1.56-1.31 1.58 1.58 0 00-.95-.28 1.6 1.6 0 00-.93.36c-.19-1.53-2.29-2.32-2.33-3.86a1.65 1.65 0 01.34-1 1.6 1.6 0 01.88-.58 1 1 0 00.34-.12c.19-.17.12-.47.2-.7.14-.4.7-.48.94-.83s-.09-1.11-.56-1.53-1-.91-.8-1.49c.06-.18.2-.35.25-.55a1 1 0 00-.46-1.06 3.08 3.08 0 00-1.15-.39c-.35.08-.45.56-.35.87a5.79 5.79 0 01.34 1c0 .19-2.08 3.07-1.8 3.11-1.32-.19-3.73-1.38-4.12.56-.14.68-.11 1.47-.63 1.93.9.19 1.8.38 2.69.6.07.35-.43.55-.78.45a1.57 1.57 0 00-1-.15 1.14 1.14 0 00-.5.56l-1.39 2.1c-.46.76-1 1.61-1.91 1.71s-1.85-.83-2.14-1.8a.93.93 0 00-.35-.61.88.88 0 00-.64 0 3.71 3.71 0 01-1.72.08 3.66 3.66 0 01-1.57-.7 2.4 2.4 0 01-.83-1.47 2.46 2.46 0 01.35-1.65c.27-.36.68-.74.52-1.15-.1-.25-.4-.42-.37-.68s.5-.34.83-.4a1.36 1.36 0 00.76-.43 1.41 1.41 0 00.32-.81c0-.31-1.71-2.33-2.13-2.34-1 0-1.92 2.12-2.44 2.88a1.42 1.42 0 01-.33.41 1.24 1.24 0 01-.45.25c-.56.09-1-.51-1.06-1a3.63 3.63 0 00-.4-1.58 2.32 2.32 0 00-.76-.55 2.18 2.18 0 00-.87-.41 2.39 2.39 0 00-1 0c-.29.09-.53.29-.82.38a1.87 1.87 0 01-1-.08 1.83 1.83 0 01-.82-.61c-.47-.5-.8-1.11-1.31-1.6-1.09-1-2.84-1.11-3.69-2.35-.41-.55-.4-1.59.28-1.8s1.38.31 1.76-.17-.51-1.86-.49-2.42.73-.91.67-1.78-.72-1.39-.78-2.15zM115.76 158.36c1-.11 1.91 0 2.68-.82 1-1.17.61-2.12-1-2.31a.67.67 0 01-.4-.14c-.31-.32.26-.75.67-.94a3 3 0 001.15-1 3.11 3.11 0 00.53-1.44c0-.24 3.84 1.63 4.14 2.07 1 1.55-1.52 4.15.43 4.51.73-1.12 1.3-2.37 1.92-3.56l1.75.83c-.43-.2 1-2.27 1.23-2.43 1-.63 2.59.66 3.35-1.18 1-2.32-3.12-5-3.91-2.19a12.76 12.76 0 01-4.55-1.64c-.27.43-.53.88-.79 1.31a1.39 1.39 0 01-.64-.1 1.43 1.43 0 01-.52-.39 3.79 3.79 0 01.56-2.15 3.85 3.85 0 011.64-1.48c-.1-1 1-1.67 1.94-2.06a3 3 0 114.89.76 4.94 4.94 0 011.86 2.39 6.43 6.43 0 016.86-3c1.3.31 2.66 1 3.9.56.56-.21 1-.65 1.55-.9 1.22-.56 2.64-.06 3.87.5.82.37 1.62.77 2.41 1.2A68.09 68.09 0 01111 167.21a2.73 2.73 0 01-1.11-.82 3 3 0 010-2.5c1-3.23 2.23-4.9 5.57-5.49z"/><path class="cls-5" d="M59.06 134.65c-1.19-.48-2.42.64-3.24 1.67l-3.69 4.57c1.57 2.06.08 4.5-1.78 5.72a68 68 0 01-10.9-77.44 64.73 64.73 0 013.34-5.8H43c2 .08 2.61 2.16 3.45 3.6.18.32 2.88 4 3.18 3.49a18.15 18.15 0 00-2.23 4.86.55.55 0 000 .4c.15.28.56.1.81-.13.56-.56 1.06-1.27 1.68-1.81a2.85 2.85 0 011-.66 2.77 2.77 0 011.22-.12c.81.14 1.44.8 2.23 1.08a3.27 3.27 0 001.49.08 3.37 3.37 0 001.39-.56 11.16 11.16 0 002.12-2c-.14 2.31 2.66 2.27 3.11 4.4.15.7.27 1.67 1 1.73s1.24-.86 1.88-.62c.46.16.52.79.37 1.24a4.63 4.63 0 00-.48 1.35 1.14 1.14 0 00.09.48 1.07 1.07 0 00.28.41 1.13 1.13 0 00.41.27 1.37 1.37 0 00.49.09 4.11 4.11 0 001.6-.81c.52-.31 1.33-.37 1.6.17a.88.88 0 01.08.42c0 1-1 1.75-1.92 2.18a5 5 0 00-2.52 1.67.76.76 0 00.22.25.85.85 0 00.94.08 1.1 1.1 0 01.4-.24c.33-.08.56.29.75.58a6.16 6.16 0 003.72 2.86l3.18-5.35c.43.2.69.3 1.07 0a64.63 64.63 0 002.08 6.16 1.35 1.35 0 01.17.76 6.47 6.47 0 01-.4.72c-.37.82.6 1.59 1.41 2 .17.25-.17.55-.47.55a6.54 6.54 0 00-.89-.07 1.14 1.14 0 00-.54.38 1.16 1.16 0 00-.24.61 3 3 0 00.54 2.2 3 3 0 001.92 1.19.9.9 0 00.56-.06c.36-.2.37-.69.52-1.07.6-1.5 2-.37 2.47.39a5 5 0 01.13 3.84c-.4 1.29-3.6 9.61-.41 9.89a1.32 1.32 0 00.84-.27c.75-.52 1.17-1.39 1.84-2s1.9-.85 2.4-.09c.2.3.23.69.41 1 .49.89 1.87.85 2.5 1.67a8.6 8.6 0 01.59 1.27c.21.41.72.77 1.11.56s.45-1 .88-1.27 1.12.16 1.16.71a1.3 1.3 0 01-.27.76 1.37 1.37 0 01-.64.5 1.86 1.86 0 00-.74.41c-.33.4-.1 1 .14 1.45l1.15 2.17a1.14 1.14 0 01-.58.38 1.16 1.16 0 01-.69 0c-.46-.1-.88-.32-1.35-.4-2.23-.36-3.72 2.49-5.94.63a1.43 1.43 0 00.23-.59 1.36 1.36 0 00-.06-.63 1.42 1.42 0 00-.34-.53 1.26 1.26 0 00-.53-.32c-1-.25-2.32.75-3.09 0-.28-.25-.37-.66-.66-.9-.77-.67-1.92.46-2.47.91-1.82 1.5-.66 2.4-1.6 4.09-.43.77-1.36 1.11-1.91 1.83s-.63 1.51-1.11 2.17c-1.29 1.84-3.28-.72-4.31-1.54 0 1.44-1.6 2.31-3 2.56-2.18.37-1.86.41-3 2a1.38 1.38 0 01-.55.52 1.36 1.36 0 01-.74.16c-.89-.12-1.23-1.24-2-1.73-.36-.23-.81-.31-1.15-.55-.9-.69-.61-2.07-.86-3.17a3.13 3.13 0 00-.66-1.31 3.07 3.07 0 00-1.19-.85 6.69 6.69 0 00-.8 1.52l1.12 1.89a4.27 4.27 0 01.72 1.78 3.28 3.28 0 00.1 1.08c.26.66 1.11.8 1.79 1.09 1.59.7 3.61 3 4.85 4.24s1.29 2.76 2.49 4a.78.78 0 01.09.21.6.6 0 010 .23.54.54 0 01-.1.2.62.62 0 01-.18.14 1.15 1.15 0 01-.89 0 3.22 3.22 0 01-1.65-1.23c.52.77-2.53 1.43-3 1.31-.71-.19-1.31-1.11-1.93-1.47-1.56-.91-2.65-1.07-2.5 1.21 0 .87.08 1.95-.69 2.36a1.14 1.14 0 00-.68-.32 1.1 1.1 0 00-.73.19 2.33 2.33 0 00-.89 1.22 1.53 1.53 0 00-.11 1 2.54 2.54 0 01.2.52c.06.61-.8.77-1.4.71M147.8 93c-.3-.63-1.16-.69-1.86-.62s-1.5.16-2-.35l1.12-2.18a.65.65 0 00.09-.43.7.7 0 00-.15-.19.42.42 0 00-.2-.1l-1.42-.66c-.61.22.2 1.3-.24 1.77-.2.21-.53.17-.82.17-2.43 0-2.33 2.79-2.07 4.39.31 1.86-.7 3.65-1.67 5.27-.35.56-.77 1.2-1.43 1.35a4.74 4.74 0 01-1.94-.34c-1.12-.23-2.29.28-3.44.26-4.06-.09-4.39-4.65-1.92-6.83 1.27-1.11 1.37-.73 1.84-2.4.2-.7.79-1.33.36-2.1a1.2 1.2 0 00-.47-.45 1.23 1.23 0 00-.62-.17 1.25 1.25 0 00-.63.15 1.2 1.2 0 00-.48.44 5.44 5.44 0 00-1.15 2.44 10.28 10.28 0 00-3.07-1.75 1.36 1.36 0 01-.49.6 1.47 1.47 0 01-.73.29 1.57 1.57 0 01-.77-.11A1.51 1.51 0 01123 91c.27-.46.48-1.17 0-1.41a.7.7 0 00-.45-.06c-.65 0-1.29.19-1.94.16-1 0-3.21-1.41-4.13-.52-.16.15-.26.36-.44.51a1.06 1.06 0 01-.67.2 1 1 0 01-.64-.29 1.39 1.39 0 01-.32-.64 1.32 1.32 0 010-.71 7.32 7.32 0 00.34-.9c.38-1.67-1.72-1.29-2.18-2a13.88 13.88 0 01-.13-3.85 3.79 3.79 0 01-1.68.41 3.71 3.71 0 01-1.7-.38c-1.11-.66-1.15-1.84-.82-3.1s1.06-2.75 1.25-3.75c.1-.56.28-1.16.79-1.35s1.43.39 2 0a1.75 1.75 0 00.42-.48 2.41 2.41 0 013.35-.32c.47 0 .74-.56 1-1s.7-.84 1.12-.65.4 1 .13 1.46a6 6 0 01-1 1.35 2.05 2.05 0 00-.69 1 1.62 1.62 0 00.24.91 3.61 3.61 0 001.46 1.72 1.56 1.56 0 002-.44 4.25 4.25 0 01.29-.56c.35-.39 1-.25 1.45 0a4.58 4.58 0 001.29.89c.51.15 1.2-.26 1-.76.73.1 1.68.45 1.6 1.19a2.16 2.16 0 01-.26.65c-.66 1.31 0 4 1.79 3.23 1.19-.51.78-2.79 2.46-2.84.8 0 1.48.72 2.28.68.31-.13.14-.6-.11-.83a3 3 0 00-1.39-.71 3.1 3.1 0 00-1.57.07c0-1 1.17-1.77.81-2.64s-1.9-.87-2-1.79a1.46 1.46 0 01.18-.77c.52-1.22 2-3.18.45-4.23a2.73 2.73 0 01-.56-.4c-.45-.52 0-1.31.39-1.86.76.06 1.18.86 1.62 1.49s1.35 1.18 1.89.63c.38-.38.32-1.14.82-1.36.24-.1.52 0 .74-.16.53-.31.06-1.12.21-1.73.2-.82 1.42-.78 2.14-.34s1.42 1.12 2.23 1c.26 0 .51-.17.76-.23a3.49 3.49 0 012.36.55c1.18.56 1-5.57 1.14-5.89 1-2.33 3.85-2.33 5.9-3.06a15 15 0 003-1.63 68.57 68.57 0 0113.17 66.07 21.46 21.46 0 01-1.15 3c-1.17-1.11-2.78-3.25-4.61-3.14-2.33.15-2.41 3.45-4.87 3.16-.5-.27.08-1 0-1.59a2 2 0 00-.48-.81c-.19-.26-.29-.65-.05-.87-.27-.55-1.12-.45-1.72-.27a4.12 4.12 0 01-2.23.12c-1.5-.41-2.23-2-3.12-3.32a21.1 21.1 0 00-2.46-2.81c.51.31 1.15-.28 1.2-.87a5.74 5.74 0 00-.36-1.74c-.21-1 .65-1.57.56-2.56-.11-1.22-.91-2.46-.45-3.59.56-1.38 2.46-1.46 3.94-1.31.12-1.83-1.12-3.76-.27-5.38a4.75 4.75 0 011.48-1.48l3.45-2.57a1.89 1.89 0 00.42-3.25l-1.32-1.84a1.59 1.59 0 00-.69-.62 1.35 1.35 0 00-1 .17 7.25 7.25 0 00-3.63 3.84 29 29 0 01-5.31-5c-.42 1.35-1.64 2.44-1.85 3.79M92.69 77.13a2.85 2.85 0 00-1.12.37 2.77 2.77 0 00-.85.82 10.78 10.78 0 00-.53 1.37 1.35 1.35 0 01-.41.59 1.37 1.37 0 01-.66.3c-.63 0-1-.63-1.32-1.18a2 2 0 01-.33-1.4 8.38 8.38 0 01.53-1 3.25 3.25 0 00-.28-2.14c-.21-.7-.22-1.64.42-2 .42-.23 1-.11 1.41-.32 1.06-.52.56-2.28 1.46-2.79 1.12-.59 2.36.66 3 1.56a9.17 9.17 0 011 3.14c.62 2.95.18 2.32-2.32 2.68zM86.61 33.46c14.64-3.5 31.07-.68 44.34 6.1l1.11.56c.72 2.87-.29 7.08-4.11 6-.19.37 0 .56 0 1 0 .63-.75 1-1.38.91-2.06-.18-4.1-1.29-5 1.12-1.12 2.91 1.12 1.84 2 3.57a3.9 3.9 0 01.19.82c.25 1 1.31 1.56 2.26 2a1.2 1.2 0 01.16-.46 1.26 1.26 0 01.33-.36 1.16 1.16 0 01.44-.19 1 1 0 01.49 0 2 2 0 00.72.16c.53-.07.56-.88.23-1.29s-.88-.6-1.27-1-.52-1.12 0-1.37a1.06 1.06 0 01.66 0 3.07 3.07 0 011.22.68 2.84 2.84 0 01.75 1.17 1.18 1.18 0 011.45-.14 1.18 1.18 0 01.47.61 1.13 1.13 0 010 .77c-.26.72-1.19 1.39-.76 2a1.58 1.58 0 00-.82-.4 1.66 1.66 0 00-.91.09c-2.26.92-3.51 5.37-6.85 2.79a16.38 16.38 0 00-1.56-1.31 1.58 1.58 0 00-.95-.28 1.6 1.6 0 00-.93.36c-.19-1.53-2.29-2.32-2.33-3.86a1.65 1.65 0 01.34-1 1.6 1.6 0 01.88-.58 1 1 0 00.34-.12c.19-.17.12-.47.2-.7.14-.4.7-.48.94-.83s-.09-1.11-.56-1.53-1-.91-.8-1.49c.06-.18.2-.35.25-.55a1 1 0 00-.46-1.06 3.08 3.08 0 00-1.15-.39c-.35.08-.45.56-.35.87a5.79 5.79 0 01.34 1c0 .19-2.08 3.07-1.8 3.11-1.32-.19-3.73-1.38-4.12.56-.14.68-.11 1.47-.63 1.93.9.19 1.8.38 2.69.6.07.35-.43.55-.78.45a1.57 1.57 0 00-1-.15 1.14 1.14 0 00-.5.56l-1.39 2.1c-.46.76-1 1.61-1.91 1.71s-1.85-.83-2.14-1.8a.93.93 0 00-.35-.61.88.88 0 00-.64 0 3.71 3.71 0 01-1.72.08 3.66 3.66 0 01-1.57-.7 2.4 2.4 0 01-.83-1.47 2.46 2.46 0 01.35-1.65c.27-.36.68-.74.52-1.15-.1-.25-.4-.42-.37-.68s.5-.34.83-.4a1.36 1.36 0 00.76-.43 1.41 1.41 0 00.32-.81c0-.31-1.71-2.33-2.13-2.34-1 0-1.92 2.12-2.44 2.88a1.42 1.42 0 01-.33.41 1.24 1.24 0 01-.45.25c-.56.09-1-.51-1.06-1a3.63 3.63 0 00-.4-1.58 2.32 2.32 0 00-.76-.55 2.18 2.18 0 00-.87-.41 2.39 2.39 0 00-1 0c-.29.09-.53.29-.82.38a1.87 1.87 0 01-1-.08 1.83 1.83 0 01-.82-.61c-.47-.5-.8-1.11-1.31-1.6-1.09-1-2.84-1.11-3.69-2.35-.41-.55-.4-1.59.28-1.8s1.38.31 1.76-.17-.51-1.86-.49-2.42.73-.91.67-1.78-.72-1.39-.78-2.15zM115.76 158.36c1-.11 1.91 0 2.68-.82 1-1.17.61-2.12-1-2.31a.67.67 0 01-.4-.14c-.31-.32.26-.75.67-.94a3 3 0 001.15-1 3.11 3.11 0 00.53-1.44c0-.24 3.84 1.63 4.14 2.07 1 1.55-1.52 4.15.43 4.51.73-1.12 1.3-2.37 1.92-3.56l1.75.83c-.43-.2 1-2.27 1.23-2.43 1-.63 2.59.66 3.35-1.18 1-2.32-3.12-5-3.91-2.19a12.76 12.76 0 01-4.55-1.64c-.27.43-.53.88-.79 1.31a1.39 1.39 0 01-.64-.1 1.43 1.43 0 01-.52-.39 3.79 3.79 0 01.56-2.15 3.85 3.85 0 011.64-1.48c-.1-1 1-1.67 1.94-2.06a3 3 0 114.89.76 4.94 4.94 0 011.86 2.39 6.43 6.43 0 016.86-3c1.3.31 2.66 1 3.9.56.56-.21 1-.65 1.55-.9 1.22-.56 2.64-.06 3.87.5.82.37 1.62.77 2.41 1.2A68.09 68.09 0 01111 167.21a2.73 2.73 0 01-1.11-.82 3 3 0 010-2.5c1-3.23 2.23-4.9 5.57-5.49z"/><path class="cls-1" d="M103.29 50l3 3 3-3a4.23 4.23 0 001.27-3 4.14 4.14 0 00-.3-1.63 4.33 4.33 0 00-.9-1.38 4.22 4.22 0 00-1.36-.93 4.09 4.09 0 00-1.62-.34 4.31 4.31 0 00-1.62.3 4.25 4.25 0 00-1.38.91 4.15 4.15 0 00-.94 1.36 4.35 4.35 0 00-.34 1.62 4.27 4.27 0 001.22 3zm1.8-1.76a1.74 1.74 0 01-.38-1.87 1.61 1.61 0 01.64-.77 1.69 1.69 0 011-.29 1.74 1.74 0 011 .29 1.65 1.65 0 01.63.77 1.71 1.71 0 01-.37 1.87 1.74 1.74 0 01-1.22.5 1.72 1.72 0 01-1.21-.5z"/><path class="cls-6" d="M103.36 44.05a4.29 4.29 0 011.39-.91 4.19 4.19 0 011.64-.3v2.51a1.89 1.89 0 00-.67.12 1.69 1.69 0 00-.58.37 1.78 1.78 0 00-.48.88 1.76 1.76 0 00.73 1.78 1.74 1.74 0 001 .29v4.23l-3-3a4.22 4.22 0 01-1.22-3 4.46 4.46 0 01.33-1.62 4.22 4.22 0 01.86-1.35z"/><path class="cls-1" d="M48.71 135.75l3 3 3-3a4.07 4.07 0 00.93-1.36 4.22 4.22 0 00-.86-4.62 4.23 4.23 0 00-3-1.27 4.12 4.12 0 00-1.62.3 4.33 4.33 0 00-1.38.9 4.23 4.23 0 00-1.27 3 4.12 4.12 0 00.3 1.62 4.33 4.33 0 00.9 1.38zm1.8-1.75a1.66 1.66 0 01-.46-.89 1.61 1.61 0 01.11-1 1.64 1.64 0 01.64-.76 1.61 1.61 0 011-.28 1.73 1.73 0 011 .3 1.71 1.71 0 01.62.78 1.68 1.68 0 01.09 1 1.72 1.72 0 01-.49.88 1.73 1.73 0 01-2.42 0z"/><path class="cls-6" d="M48.78 129.77a4.29 4.29 0 011.39-.91 4.37 4.37 0 011.64-.29v2.51a1.75 1.75 0 00-1 .26 1.68 1.68 0 00-.65.77 1.71 1.71 0 00-.12 1 1.83 1.83 0 00.47.89 1.79 1.79 0 00.56.38 1.7 1.7 0 00.67.13v4.25l-3-3a4.23 4.23 0 01.07-6z"/><path class="cls-1" d="M46.63 79.87l3 3 3-3a4.29 4.29 0 001.27-3 4.21 4.21 0 00-1.21-3 4.25 4.25 0 00-1.37-.87 4.46 4.46 0 00-1.61-.34 4.25 4.25 0 00-1.62.31 4.11 4.11 0 00-1.39.9 4.39 4.39 0 00-.93 1.36 4.26 4.26 0 00-.34 1.61 4.14 4.14 0 00.3 1.63 4.33 4.33 0 00.9 1.38zm1.8-1.75a1.7 1.7 0 01-.46-.89 1.68 1.68 0 01.11-1 1.64 1.64 0 01.64-.76 1.71 1.71 0 012.53.8 1.68 1.68 0 01.09 1 1.78 1.78 0 01-.48.88 1.74 1.74 0 01-.56.36 1.69 1.69 0 01-.66.13 1.86 1.86 0 01-.64-.14 1.64 1.64 0 01-.55-.38z"/><path class="cls-6" d="M46.7 73.89a4.25 4.25 0 013-1.21v2.51a1.8 1.8 0 00-1.23.49 1.73 1.73 0 00-.47 1.21 1.72 1.72 0 001.7 1.74l-.05 4.23-2.95-3a4.1 4.1 0 01-.91-1.38 4.25 4.25 0 01-.32-1.62 4.35 4.35 0 01.34-1.62 4.19 4.19 0 01.92-1.36z"/><path class="cls-1" d="M124.28 140.2l3 3 3-2.95a4.22 4.22 0 00.93-1.36 4.09 4.09 0 00.34-1.62 4.31 4.31 0 00-.3-1.62 4.25 4.25 0 00-.91-1.38 4 4 0 00-1.36-.93 4.24 4.24 0 00-3.23 0 4.27 4.27 0 00-1.39.9 4.29 4.29 0 00-1.27 3 4.21 4.21 0 001.21 3zm1.79-1.75a1.81 1.81 0 01-.46-.89 1.72 1.72 0 013.29-.95 1.86 1.86 0 01.09 1 1.67 1.67 0 01-1.05 1.24 1.66 1.66 0 01-1.31 0 1.79 1.79 0 01-.56-.38z"/><path class="cls-6" d="M124.32 134.22a4.29 4.29 0 013-1.2v2.51a1.77 1.77 0 00-.68.11 1.84 1.84 0 00-.57.38 1.67 1.67 0 00-.48.88 1.72 1.72 0 001.69 2.06l-.05 4.24-3-3a4 4 0 01-.9-1.38 4.25 4.25 0 01.94-4.6z"/><path class="cls-1" d="M156.72 87.09l3 3 3-3a4.22 4.22 0 00.93-1.36 4.26 4.26 0 000-3.24 4.33 4.33 0 00-.9-1.38 4.24 4.24 0 00-6-.07 4.28 4.28 0 00-1.27 3 4.2 4.2 0 001.2 3zm1.8-1.75a1.67 1.67 0 01-.46-.88 1.71 1.71 0 01.1-1 1.77 1.77 0 01.65-.76 1.68 1.68 0 01.95-.28 1.84 1.84 0 011 .3 1.76 1.76 0 01.62.78 1.63 1.63 0 01.08 1 1.67 1.67 0 01-.48.87 1.7 1.7 0 01-2.42 0z"/><path class="cls-6" d="M156.79 81.11a4.11 4.11 0 011.39-.9 4.19 4.19 0 011.64-.3v2.51a1.6 1.6 0 00-.68.12 1.65 1.65 0 00-.57.37 1.73 1.73 0 000 2.43 1.67 1.67 0 00.56.39 1.69 1.69 0 00.67.12v4.24l-3-3a4.24 4.24 0 010-6z"/><path class="cls-1" d="M116.34 80.56l3 3 3-3a4.22 4.22 0 00.93-1.36 4.09 4.09 0 00.34-1.62 4.31 4.31 0 00-.3-1.62 4.22 4.22 0 00-.9-1.38 4.25 4.25 0 00-1.36-.94 4.47 4.47 0 00-1.62-.34 4.32 4.32 0 00-1.62.31 4 4 0 00-1.38.9 4.21 4.21 0 00-1.28 3 4.26 4.26 0 001.21 3zm1.8-1.76a1.7 1.7 0 01-.35-1.87 1.68 1.68 0 011.6-1 1.62 1.62 0 011 .3 1.71 1.71 0 01.23 2.64 1.76 1.76 0 01-.56.37 1.88 1.88 0 01-.66.12 1.66 1.66 0 01-.66-.14 1.51 1.51 0 01-.55-.38z"/><path class="cls-6" d="M116.41 74.58a4.29 4.29 0 011.39-.91 4.37 4.37 0 011.64-.29v2.51a1.7 1.7 0 00-1.25.48 1.76 1.76 0 00-.37.56 1.65 1.65 0 00-.13.66 1.69 1.69 0 00.13.66 1.8 1.8 0 00.94.94 1.7 1.7 0 00.67.13l-.1 4.22-3-3a4.21 4.21 0 01.09-6z"/><path class="cls-1" d="M103.29 70.15l-1.12-.23c.19-.88.33-1.37.34-1.4l1.07.32s-.11.46-.29 1.31zM139.12 129.88a18.8 18.8 0 00-1.64-2.23l.85-.71a17.47 17.47 0 011.74 2.38zm-4.81-5.47c-.65-.59-1.35-1.2-2.16-1.86l.71-.86c.82.67 1.54 1.29 2.2 1.89zm-5.75-4.7c-.74-.58-1.5-1.16-2.29-1.74l.68-.89 2.29 1.74zm-6-4.53c-.75-.59-1.51-1.18-2.27-1.79l.7-.87c.75.61 1.5 1.19 2.26 1.77zm-5.82-4.74c-.76-.66-1.48-1.32-2.15-1.94l.76-.82c.66.62 1.38 1.26 2.12 1.91zm-5.41-5.25c-.66-.74-1.3-1.49-1.88-2.23l.88-.69c.55.71 1.18 1.43 1.83 2.16zm-4.55-6c-.51-.83-1-1.68-1.42-2.55l1-.5c.42.83.88 1.67 1.37 2.47zm-3.25-6.84c-.33-.91-.62-1.85-.87-2.79l1.08-.29c.24.91.53 1.82.84 2.7zM101.76 85c-.13-1-.25-1.92-.32-2.89l1.12-.09c.07 1 .18 1.9.31 2.79zm.69-7.52h-1.12c0-1 .08-1.94.18-2.9l1.11.1c-.09.93-.15 1.89-.17 2.83zM141.8 135.29h-1.12a8 8 0 00-.05-1.3l1.11-.14a9.16 9.16 0 01.06 1.44zM149.16 95.4l-1-.55c.43-.76.64-1.19.64-1.2l1 .48s-.19.48-.64 1.27z"/><path class="cls-1" d="M91.77 130.91l-.19-1.11c.89-.15 1.76-.3 2.61-.47l.21 1.12c-.86.16-1.74.32-2.63.46zm6.81-1.36l-.25-1.08c.87-.21 1.72-.42 2.56-.64l.29 1.08c-.84.22-1.72.44-2.6.64zm6.7-1.81l-.33-1.07c.85-.26 1.67-.55 2.52-.81l.35 1c-.82.29-1.66.56-2.53.83zm6.56-2.29l-.4-1c.82-.32 1.64-.66 2.45-1l.43 1c-.8.38-1.64.69-2.46 1zm6.38-2.79l-.49-1c.8-.38 1.59-.79 2.36-1.19l.52 1c-.75.42-1.57.82-2.38 1.22zm6.14-3.28l-.56-1c.77-.46 1.51-.92 2.23-1.38l.6.94c-.72.48-1.49 1-2.27 1.41zm5.83-3.8l-.65-.91c.72-.51 1.43-1 2.12-1.57l.68.88c-.69.56-1.42 1.09-2.14 1.61zm5.47-4.3l-.72-.85c.66-.56 1.32-1.16 2-1.76l.76.82c-.64.61-1.31 1.21-2 1.8zm5.05-4.8l-.77-.76c.6-.64 1.21-1.29 1.78-1.94l.84.73c-.62.67-1.22 1.34-1.84 2zm4.55-5.29l-.86-.67c.56-.7 1.07-1.42 1.56-2.13l.91.65c-.52.72-1.06 1.44-1.61 2.16zM86.14 131.72L86 130.6l1.37-.17.15 1.11zM53.39 56.93c-.48-.47-.78-.82-1-1l.81-.77c.15.18.45.51.89 1zM85.47 66.81v-1.12c.92 0 1.87 0 2.79-.09v1.12c-.9.01-1.87.04-2.79.09zm-4.56-.07c-1 0-1.91-.11-2.85-.19l.1-1.11c.92.08 1.86.14 2.79.18zM73.56 66c-1-.15-1.89-.33-2.79-.55l.23-1.13c.9.19 1.82.37 2.75.52zm-7.25-1.71c-.92-.3-1.83-.62-2.7-1l.41-1c.85.34 1.73.66 2.63.95zm-6.86-2.92c-.86-.47-1.67-1-2.46-1.49l.62-.93c.75.51 1.55 1 2.38 1.45zM92.88 66.35l-.11-1.12 1.37-.14.13 1.11zM78 137c-.34-.77-.56-1.22-.56-1.22l1-.55s.26.48.62 1.3zM78.41 158.22l-.94-.59a19.18 19.18 0 001.26-2.42l1 .44a19 19 0 01-1.34 2.57zm2.64-7l-1.11-.22a21 21 0 00.27-2.74h1.11a21.27 21.27 0 01-.27 2.94zm-1.11-7.31c-.14-.89-.33-1.8-.56-2.7l1.08-.28c.24.92.43 1.85.58 2.79zM74.48 162.82l-.74-.84c.34-.3.68-.61 1-.93l.79.79c-.34.35-.69.66-1.05.98zM113.06 65.91h-1.42l.06-1.12h1.37zM118 65.69l-.1-1.12c1-.08 2-.2 3-.34l.15 1.11c-1 .15-2.05.27-3.05.35zm7.92-1.29l-.27-1.08c1-.25 2-.56 2.9-.83l.35 1.06c-1 .32-2 .61-3 .86zm7.57-2.71l-.49-1a29.05 29.05 0 002.62-1.45l.59.94a29 29 0 01-2.72 1.52zm6.66-4.57l-.76-.79a21 21 0 002-2.2l.87.69a21.11 21.11 0 01-2.12 2.31zM144.87 50.55l-1-.48.55-1.25 1 .4c-.16.46-.35.9-.55 1.33zM110.5 87.14l-1-.48a10.83 10.83 0 00.51-1.22l1.06.36a10.57 10.57 0 01-.57 1.34zM101.06 93.86a10.82 10.82 0 01-2.88-.45l.32-1.07a9.72 9.72 0 002.58.41zm4.53-1.11l-.56-1a9.46 9.46 0 002.06-1.61l.79.78a10.1 10.1 0 01-2.29 1.77zM94 91.52c-.47-.29-1-.62-1.44-1l-.88-.64.67-.9.86.63c.46.33.93.64 1.38.92zm-5.79-4.43c-.68-.55-1.35-1.2-2.07-1.87l.78-.84c.7.66 1.37 1.27 2 1.85zm-5.25-5l-.43-.43L81 80.15l.78-.79c.5.49 1 1 1.54 1.53l.43.42zm-5.18-5a24.32 24.32 0 00-2.16-1.62l.61-.93a22.92 22.92 0 012.27 1.68zm-6-3.34a9.9 9.9 0 00-2.6-.26v-1.12a11.26 11.26 0 012.89.29zM63.74 74.89l-.44-1c.45-.19.9-.37 1.33-.52l.38 1c-.42.17-.84.33-1.27.52zM120.42 144.15l-.34-1.06c.86-.27 1.37-.41 1.37-.41l.27 1.09s-.52.12-1.3.38zM99.37 161l-1.09-.27a15.84 15.84 0 011-2.68l1 .46a13.91 13.91 0 00-.91 2.49zm3.15-6.07l-.86-.7a20.71 20.71 0 011.91-2.06l.77.8a25.9 25.9 0 00-1.82 1.91zm5.17-4.67l-.66-.92c.74-.52 1.53-1 2.35-1.51l.56 1c-.77.48-1.54 1-2.25 1.47zm6.14-3.5l-.48-1c.83-.38 1.67-.76 2.54-1.11l.42 1c-.86.35-1.69.71-2.5 1.09zM98 166.65a11.76 11.76 0 01-.15-1.43l1.11-.07c0 .44.07.89.14 1.34zM97.05 52.65L97 51.54c.84-.06 1.35-.12 1.35-.12l.15 1.11s-.57.07-1.45.12zM92.42 52.67c-1-.07-2-.17-2.9-.31l.17-1.12c.89.14 1.83.24 2.79.3zM85 51.19a16.33 16.33 0 01-2.67-1.27l.56-1a14.44 14.44 0 002.48 1.18zm-6.19-4.47A11.05 11.05 0 0177.44 44l1.06-.36a9.17 9.17 0 001.21 2.4zM77.91 39.36H76.8a13.94 13.94 0 01.1-1.43L78 38c0 .46-.07.92-.09 1.36z"/><path fill="none" d="M0 0h200v200H0z"/></g></g></svg>