<svg xmlns="http://www.w3.org/2000/svg" viewBox="0 0 200 200"><defs><style>.cls-2{fill:#263238}.cls-11,.cls-17,.cls-3{fill:#fff}.cls-11,.cls-12,.cls-17,.cls-3,.cls-4,.cls-8{isolation:isolate}.cls-3,.cls-8,.cls-9{opacity:.3}.cls-11,.cls-4{opacity:.2}.cls-5{fill:#407bff}.cls-12{opacity:.1}.cls-10{fill:#ebb376}.cls-16{fill:#2e353a}.cls-17{opacity:.5}.cls-19{fill:#b97964}</style></defs><g id="Camada_2" data-name="Camada 2"><g id="Camada_1-2" data-name="Camada 1"><path d="M101.85 167.8c54.21 0 98.15-3.38 98.15-7.54s-43.94-7.53-98.15-7.53S3.7 156.1 3.7 160.26s43.95 7.54 98.15 7.54z" fill="#f5f5f5"/><path class="cls-2" d="M48.49 159.89l-16.77-6.18-16.95 6.18a.9.9 0 01-.43.05.92.92 0 01-.67-.48.87.87 0 01-.11-.41 1 1 0 01.14-.49 1.1 1.1 0 01.38-.33L31.72 150l17.46 8.19a.81.81 0 01.38.33.9.9 0 01.14.48.86.86 0 01-.09.42.83.83 0 01-.28.33.86.86 0 01-.41.16.9.9 0 01-.43-.02z"/><path class="cls-3" d="M48.49 159.89l-16.77-6.18-16.95 6.18a.9.9 0 01-.43.05.92.92 0 01-.67-.48.87.87 0 01-.11-.41 1 1 0 01.14-.49 1.1 1.1 0 01.38-.33L31.72 150l17.46 8.19a.81.81 0 01.38.33.9.9 0 01.14.48.86.86 0 01-.09.42.83.83 0 01-.28.33.86.86 0 01-.41.16.9.9 0 01-.43-.02z"/><path class="cls-4" d="M27.77 155.15l3.95-1.44 3.77 1.39v-3.29l-3.77-1.76-3.95 1.83z"/><path class="cls-2" d="M31.63 160a1.47 1.47 0 01-1.5-1.33l-.48-5v-41.22h3.94v41.25l-.48 5a1.48 1.48 0 01-.48 1 1.44 1.44 0 01-1 .38z"/><path class="cls-3" d="M31.63 160a1.47 1.47 0 01-1.5-1.33l-.48-5v-41.22h3.94v41.25l-.48 5a1.48 1.48 0 01-.48 1 1.44 1.44 0 01-1 .38z"/><path class="cls-4" d="M33.59 112.44h-3.92v4.81h3.92z"/><path class="cls-5" d="M22.86 69.93a1.68 1.68 0 01.87.22 1.66 1.66 0 01.62.64 57.78 57.78 0 017.24 39.92 1.49 1.49 0 01-.45.91 1.44 1.44 0 01-.94.39c-1.09.08-20.4 0-21.09 0a1.89 1.89 0 01-.84-.17 1.85 1.85 0 01-.68-.5 2 2 0 01-.4-.75 2 2 0 01-.05-.84A53.93 53.93 0 00.27 72.62a1.78 1.78 0 010-1.8A1.83 1.83 0 011.89 70c.56-.08 19.74 0 20.97-.07z"/><path class="cls-4" d="M22.86 69.93a1.68 1.68 0 01.87.22 1.66 1.66 0 01.62.64 57.78 57.78 0 017.24 39.92 1.49 1.49 0 01-.45.91 1.44 1.44 0 01-.94.39c-1.09.08-20.4 0-21.09 0a1.89 1.89 0 01-.84-.17 1.85 1.85 0 01-.68-.5 2 2 0 01-.4-.75 2 2 0 01-.05-.84A53.93 53.93 0 00.27 72.62a1.78 1.78 0 010-1.8A1.83 1.83 0 011.89 70c.56-.08 19.74 0 20.97-.07z"/><path class="cls-5" d="M7.14 109.73A53.9 53.9 0 00.27 72.61c-1.2-2 1.92-3.81 3.12-1.82a57.78 57.78 0 017.24 39.92c-.41 2.28-3.9 1.33-3.49-1z"/><path d="M7.14 109.73A53.9 53.9 0 00.27 72.61c-1.2-2 1.92-3.81 3.12-1.82a57.78 57.78 0 017.24 39.92c-.41 2.28-3.9 1.33-3.49-1z" style="isolation:isolate" opacity=".1" fill="#fff"/><path class="cls-5" d="M67.39 108.69a60.67 60.67 0 00-13.54-1.86c-4.7-.12-22.29 0-26.47 0a60.59 60.59 0 00-15.1 1.88c-3.1.79-2.15 5.26.67 5.32h53.62c2.88.11 3.95-4.54.82-5.34z"/><path class="cls-8" d="M67.39 108.69a60.67 60.67 0 00-13.54-1.86c-4.7-.12-22.29 0-26.47 0a60.59 60.59 0 00-15.1 1.88c-3.1.79-2.15 5.26.67 5.32h53.62c2.88.11 3.95-4.54.82-5.34z"/><path class="cls-5" d="M13.68 113.91a55.46 55.46 0 0127.33 0c3.38.86 4.83-4.36 1.45-5.22a61.31 61.31 0 00-30.21 0c-3.38.86-1.95 6.08 1.43 5.22z"/><g class="cls-9"><path class="cls-3" d="M13.68 113.91a55.46 55.46 0 0127.33 0c3.38.86 4.83-4.36 1.45-5.22a61.31 61.31 0 00-30.21 0c-3.38.86-1.95 6.08 1.43 5.22z"/></g><path class="cls-10" d="M62.64 80.41l6.11-.26L70.58 79a1.81 1.81 0 01.71-.27 1.9 1.9 0 01.75 0l1.33.33a1.86 1.86 0 001 0 1.79 1.79 0 00.85-.56 2 2 0 00.39-.73 1.89 1.89 0 000-.82 1.84 1.84 0 00-.32-.76 2 2 0 00-.63-.55l-2-1.08a1.91 1.91 0 00-1-.22 2 2 0 00-1 .36l-3.16 2.36-4.85-.34z"/><path class="cls-5" d="M56 56.71l-2.1 18.63 11.9.85-.52 4.28s-12 2.1-16.45.9S50.29 60 50.29 60z"/><path class="cls-11" d="M56 56.71l-2.1 18.63 11.9.85-.52 4.28s-12 2.1-16.45.9S50.29 60 50.29 60z"/><path class="cls-12" d="M52.2 79.69c-3.11-1.62 1.06-17.13 2.53-22.24L50.29 60s-5.87 20.17-1.46 21.37c2.71.74 8.3.23 12.21-.27-2.66.01-6.55-.22-8.84-1.41z"/><path class="cls-5" d="M45.48 93.12a104.55 104.55 0 01-26.67 1.5s2.05-23.85 9.32-36.91a9.35 9.35 0 015.32-4.34c5.22-1.63 13.61-3.08 22.55 3.33 0 .01-4.5 8.43-10.52 36.42z"/><path d="M45.48 93.12a104.55 104.55 0 01-26.67 1.5s2.05-23.85 9.32-36.91a9.35 9.35 0 015.32-4.34c5.22-1.63 13.61-3.08 22.55 3.33 0 .01-4.5 8.43-10.52 36.42z" style="isolation:isolate" opacity=".4" fill="#fff"/><path class="cls-5" d="M49.82 62.65a.72.72 0 01-.12.4.68.68 0 01-.32.26.75.75 0 01-.42 0 .79.79 0 01-.37-.2.73.73 0 01-.19-.37.64.64 0 010-.41.71.71 0 01.26-.33.72.72 0 01.4-.12.74.74 0 01.51.21.71.71 0 01.25.56zM47.29 70a.72.72 0 01-.12.4.74.74 0 01-.32.26.75.75 0 01-.42 0 .65.65 0 01-.36-.2.72.72 0 01-.2-.36.75.75 0 010-.42.76.76 0 01.27-.32.67.67 0 01.39-.12.68.68 0 01.51.21.69.69 0 01.21.51zM44.28 80.41a.72.72 0 10-.72-.72.72.72 0 00.72.72zM43.11 87.78a.72.72 0 01-.12.4.68.68 0 01-.32.26.75.75 0 01-.42 0 .74.74 0 01-.57-.57.82.82 0 010-.41.71.71 0 01.27-.32.73.73 0 01.4-.13.71.71 0 01.5.21.7.7 0 01.22.51z"/><path class="cls-12" d="M50.71 71.87l-9 2-7.12-2-2.81-8-.6-4.51h-2s-1.91 14.37 4.61 20.27c4.07 3.68 10.71 1.29 15.13-1 .6-2.49 1.21-4.74 1.79-6.76z"/><path class="cls-10" d="M56.56 136.5l-3.14 13.65 3.89 1.51 5.61-13.73z"/><path class="cls-2" d="M57.09 150.76l-3.54-1.89a.33.33 0 00-.24 0 .4.4 0 00-.22.12l-2.52 2.92a.72.72 0 00-.12.21.48.48 0 000 .24.46.46 0 00.06.23.45.45 0 00.15.19.39.39 0 00.1.08c1.49.77 2.84 1.39 4.66 2.38 2.16 1.16 1.47 1.12 4 2.53 1.52.84 2.74-.75 2.13-1.18a8.24 8.24 0 01-3.7-5 1.56 1.56 0 00-.76-.83zM25 94.17l19.08-1s31.75 5 31.27 13.84-13.31 36.86-13.31 36.86l-7.57-2.1s5.77-28.14 9.53-32.8c0 0-23.71-2.79-29.64-4.36-3.28-.92-11.15.55-9.36-10.44z"/><path class="cls-4" d="M60.78 108.53a16.84 16.84 0 00-1.46-7.66c-1.76-4-16.29-6.38-23.25-7.32l-11 .61c-1.81 11 6.06 9.51 9.32 10.38 4.54 1.23 19.69 3.17 26.39 3.99z"/><path class="cls-10" d="M43.57 140.26l-.5 14 4.22.2 2.8-14z"/><path class="cls-2" d="M47 153.18l-4.09.09a.33.33 0 00-.23.09.36.36 0 00-.13.22l-.78 3.84a.65.65 0 00.1.47.66.66 0 00.38.29h.14c1.7-.06 3.2-.18 5.32-.22 2.5-.05 1.87.26 4.81.25 1.77 0 2.06-2 1.33-2.11a8.34 8.34 0 01-5.79-2.6 1.52 1.52 0 00-1.06-.32zM30.13 94.17s25.57.91 27.08 8.73-7.07 42.88-7.07 42.88h-7.66s.89-31.45 3.46-38.07c0 0-21.07 3.33-26.62-1.47-4-3.41.75-12.07.75-12.07zM53.85 140.06l9.54 2.66-1.74 3.66-8.65-2.15z"/><path class="cls-8" d="M53.85 140.06l9.54 2.66-1.74 3.66-8.65-2.15z"/><path class="cls-10" d="M53.42 69.24l7.58-2.5 4.88 2.18a1.53 1.53 0 01.59.45 1.56 1.56 0 01.3.67l.52 2.78a1.52 1.52 0 010 .67 1.44 1.44 0 01-.3.59 1.48 1.48 0 01-1.18.56 1.55 1.55 0 01-1-.35l-4.28-3.54-6.66 2.66z"/><path class="cls-2" d="M41.72 143.82l9.63.45-.9 3.84-8.73-.45z"/><path class="cls-8" d="M41.72 143.82l9.63.45-.9 3.84-8.73-.45z"/><path class="cls-5" d="M29.63 56.71c1.49-2.22 3.85-4.55 9.83 15l17.95-4.41.52 4.89S43.29 80.08 37.42 79s-11.86-16.18-7.79-22.29z"/><path class="cls-11" d="M29.63 56.71c1.49-2.22 3.85-4.55 9.83 15l17.95-4.41.52 4.89S43.29 80.08 37.42 79s-11.86-16.18-7.79-22.29z"/><path class="cls-10" d="M48.39 49.89L45 53.08s1.33 4.13 4.72 4.13S51 52 51 52z"/><path class="cls-10" d="M50.19 59.6l1.65-.86.7-1.05-.3-3.26A22.75 22.75 0 0043.5 52l-.13 1.52 1.85 5.32 2.15.71z"/><path class="cls-12" d="M51.05 52l-2.67-2.09-.45.42c-.26 1.55-.56 4.79 1.17 6.06a2 2 0 00.91.43 2.2 2.2 0 001 0c1.43-1.28.04-4.82.04-4.82z"/><path class="cls-5" d="M49.24 60l2.56 1.33c1.79-2.14 1.33-5.13.94-6.7l-.9-.45c.34 2.36.06 5-2.75 5-4.41.13-5.07-5.51-5.17-7.2L43 52c-1.4 6.25 2.51 9.37 2.51 9.37z"/><path class="cls-11" d="M49.24 60l2.56 1.33c1.79-2.14 1.33-5.13.94-6.7l-.9-.45c.34 2.36.06 5-2.75 5-4.41.13-5.07-5.51-5.17-7.2L43 52c-1.4 6.25 2.51 9.37 2.51 9.37z"/><path class="cls-2" d="M60.15 42c2.44 1.58 1.72 5.53-.82 7.16-.72-4.55.82-7.16.82-7.16z"/><path d="M60.15 42c2.44 1.58 1.72 5.53-.82 7.16-.72-4.55.82-7.16.82-7.16z" style="isolation:isolate" opacity=".4"/><path class="cls-10" d="M49 44.58c-.91 4.17-1.66 6.55-.22 9.32a5.54 5.54 0 009.82.1c1.92-3.38 3.09-9.63-.4-12.53A5.61 5.61 0 0049 44.6z"/><path class="cls-2" d="M48.56 48.47c2.23 1.15 3.66-2.76 3.33-4.66 2.9 2 9.4 1.69 11.31-1 2.09-2.89-1-5.32-3.87-6.22a1.37 1.37 0 00-.57 0 1.42 1.42 0 00-.53.2 1.39 1.39 0 00-.4.4 1.46 1.46 0 00-.22.53.57.57 0 01-.2.32 11.69 11.69 0 00-1.94-1.33 2.62 2.62 0 00-1.56-.22 2.53 2.53 0 00-1.39.74c-.33.3-1.13.36-2.74-.18-3.33-1.13-3.9 2.5-2.28 3.21-1.47.9-3.9 3.37-2.59 5.54s2.44 5 1.7 5.51c.7.29 1.9-.43 1.95-2.84z"/><path class="cls-10" d="M46.48 47.55a3.81 3.81 0 001.06 2.56c.87.88 1.88.22 2.1-1s0-2.8-1.12-3.24-2.04.49-2.04 1.68z"/><path class="cls-2" d="M54.81 47.71c-.1.33 0 .66.22.71s.47-.15.57-.48 0-.67-.24-.71-.46.14-.55.48zM58.53 48.88c-.1.34 0 .67.22.71s.47-.15.57-.48 0-.67-.24-.71-.45.17-.55.48z"/><path d="M57.29 48.69a13.53 13.53 0 00.76 3.31 1.87 1.87 0 01-.85.08 2 2 0 01-.81-.28z" fill="#d58745"/><path class="cls-2" d="M54 46.12a.18.18 0 01-.1 0 .24.24 0 010-.14.22.22 0 010-.14 2.09 2.09 0 01.87-.4 2.22 2.22 0 011 .06h.06a.15.15 0 01.05.06.19.19 0 010 .08.17.17 0 010 .07.16.16 0 010 .07H55.66a1.43 1.43 0 00-.74-.05 1.55 1.55 0 00-.68.3h-.08zM60.49 48.13a.24.24 0 01-.08-.06.16.16 0 010-.09 1.72 1.72 0 00-.28-.72 1.74 1.74 0 00-.56-.52.2.2 0 01-.09-.13.22.22 0 010-.16.23.23 0 01.1-.07.2.2 0 01.13 0 2.11 2.11 0 01.71.65 2 2 0 01.35.89V48.07l-.06.06h-.07a.17.17 0 01-.12 0zM54.51 53a3.82 3.82 0 00.57.11.11.11 0 00.08 0 .08.08 0 00.05-.07 3.14 3.14 0 01-1.36-.49 3 3 0 01-1-1 3.18 3.18 0 00.83 1 3.15 3.15 0 001.13.56z"/><path class="cls-16" d="M48.05 40.41a2.69 2.69 0 01-1.24-.69 2.6 2.6 0 01-.71-1.22.57.57 0 00-.16-.22.45.45 0 00-.25-.09.39.39 0 00-.26.06.52.52 0 00-.19.2c-.56 1.2-.82 2.87 2.81 1.96z"/><path class="cls-5" d="M76.17 45.5h-1.91a3.36 3.36 0 00-2.19.88A3.31 3.31 0 0071 48.49l-1.65 18.63a2.6 2.6 0 00.11 1.14A2.63 2.63 0 0071 69.9a2.72 2.72 0 001.12.21H74z"/><path class="cls-3" d="M76.17 45.5h-1.91a3.36 3.36 0 00-2.19.88A3.31 3.31 0 0071 48.49l-1.65 18.63a2.6 2.6 0 00.11 1.14A2.63 2.63 0 0071 69.9a2.72 2.72 0 001.12.21H74z"/><path class="cls-5" d="M104.5 70.12H73.38a2.66 2.66 0 01-1.12-.21 2.55 2.55 0 01-.93-.66 2.69 2.69 0 01-.57-1 2.55 2.55 0 01-.1-1.13l1.65-18.62a3.35 3.35 0 011.06-2.11 3.31 3.31 0 012.2-.87h31.12a2.51 2.51 0 011.12.21 2.65 2.65 0 01.93.65 2.73 2.73 0 01.57 1 2.55 2.55 0 01.1 1.13l-1.65 18.64a3.32 3.32 0 01-3.26 3z"/><path class="cls-4" d="M104.5 70.12H73.38a2.66 2.66 0 01-1.12-.21 2.55 2.55 0 01-.93-.66 2.69 2.69 0 01-.57-1 2.55 2.55 0 01-.1-1.13l1.65-18.62a3.35 3.35 0 011.06-2.11 3.31 3.31 0 012.2-.87h31.12a2.51 2.51 0 011.12.21 2.65 2.65 0 01.93.65 2.73 2.73 0 01.57 1 2.55 2.55 0 01.1 1.13l-1.65 18.64a3.32 3.32 0 01-3.26 3z"/><path class="cls-17" d="M90.58 56a2.32 2.32 0 01.07-.46 2.1 2.1 0 00-.61-.09 2.42 2.42 0 00-1.31.39 2.35 2.35 0 00-1 2.42A2.36 2.36 0 0090.94 60a2.37 2.37 0 001.06-.88 2.34 2.34 0 00.39-1.31 1.84 1.84 0 01-.69-.13 1.77 1.77 0 01-1-1 1.81 1.81 0 01-.14-.69z"/><path class="cls-2" d="M88.61 79.06H91l-1-10.83a1.16 1.16 0 00-.38-.78 1.2 1.2 0 00-.81-.31 1.14 1.14 0 00-.48.09 1.41 1.41 0 00-.4.29 1.18 1.18 0 00-.24.42 1 1 0 00-.06.49z"/><path class="cls-3" d="M88.61 79.06H91l-1-10.83a1.16 1.16 0 00-.38-.78 1.2 1.2 0 00-.81-.31 1.14 1.14 0 00-.48.09 1.41 1.41 0 00-.4.29 1.18 1.18 0 00-.24.42 1 1 0 00-.06.49z"/><path class="cls-5" d="M96.18 82.21a6.32 6.32 0 00-3.83-6 6.27 6.27 0 00-7 1.42A6.1 6.1 0 0084 79.74a6.27 6.27 0 00-.42 2.47z"/><path class="cls-17" d="M96.18 82.21a6.32 6.32 0 00-3.83-6 6.27 6.27 0 00-7 1.42A6.1 6.1 0 0084 79.74a6.27 6.27 0 00-.42 2.47z"/><path class="cls-5" d="M81.42 82.21h-9.93A1.2 1.2 0 0170.3 81a1.2 1.2 0 011.19-1.19h9.93a1.18 1.18 0 01.83.35 1.15 1.15 0 01.35.84 1.18 1.18 0 01-.35.84 1.23 1.23 0 01-.83.35z"/><path class="cls-3" d="M81.42 82.21h-9.93A1.2 1.2 0 0170.3 81a1.2 1.2 0 011.19-1.19h9.93a1.18 1.18 0 01.83.35 1.15 1.15 0 01.35.84 1.18 1.18 0 01-.35.84 1.23 1.23 0 01-.83.35z"/><path class="cls-5" d="M72.1 82.21h-9.92a1.15 1.15 0 01-.84-.35A1.2 1.2 0 0161 81a1.2 1.2 0 011.19-1.19h9.91a1.21 1.21 0 01.84.35 1.19 1.19 0 01.35.84 1.2 1.2 0 01-.74 1.1 1.13 1.13 0 01-.45.09z"/><path class="cls-17" d="M72.1 82.21h-9.92a1.15 1.15 0 01-.84-.35A1.2 1.2 0 0161 81a1.2 1.2 0 011.19-1.19h9.91a1.21 1.21 0 01.84.35 1.19 1.19 0 01.35.84 1.2 1.2 0 01-.74 1.1 1.13 1.13 0 01-.45.09z"/><path class="cls-5" d="M161.34 70.08a1.64 1.64 0 00-.87.22 1.66 1.66 0 00-.63.63 57.81 57.81 0 00-7.24 39.93 1.44 1.44 0 00.45.9 1.51 1.51 0 00.94.4c1.08.07 20.39 0 21.09 0a2.12 2.12 0 00.83-.17 1.91 1.91 0 00.68-.51 1.93 1.93 0 00.41-.74 2.21 2.21 0 00.05-.85 53.9 53.9 0 016.87-37.12 1.92 1.92 0 00.23-.91 1.78 1.78 0 00-.27-.89 1.74 1.74 0 00-1.58-.86c-.56-.05-19.73-.01-20.96-.03z"/><path class="cls-4" d="M161.34 70.08a1.64 1.64 0 00-.87.22 1.66 1.66 0 00-.63.63 57.81 57.81 0 00-7.24 39.93 1.44 1.44 0 00.45.9 1.51 1.51 0 00.94.4c1.08.07 20.39 0 21.09 0a2.12 2.12 0 00.83-.17 1.91 1.91 0 00.68-.51 1.93 1.93 0 00.41-.74 2.21 2.21 0 00.05-.85 53.9 53.9 0 016.87-37.12 1.92 1.92 0 00.23-.91 1.78 1.78 0 00-.27-.89 1.74 1.74 0 00-1.58-.86c-.56-.05-19.73-.01-20.96-.03z"/><path class="cls-5" d="M177.05 109.88a53.89 53.89 0 016.87-37.12c1.2-2-1.92-3.81-3.12-1.83a57.75 57.75 0 00-7.23 39.93c.41 2.28 3.89 1.33 3.48-1z"/><path class="cls-11" d="M177.05 109.88a53.89 53.89 0 016.87-37.12c1.2-2-1.92-3.81-3.12-1.83a57.75 57.75 0 00-7.23 39.93c.41 2.28 3.89 1.33 3.48-1z" opacity=".2"/><path class="cls-2" d="M165.21 160l-16.77-6.18-17 6.18a.86.86 0 01-.42.05.93.93 0 01-.79-.89.88.88 0 01.15-.49.85.85 0 01.38-.32l17.64-8.19 17.46 8.18a.91.91 0 01.37.33.91.91 0 010 .9 1.06 1.06 0 01-.28.32 1 1 0 01-.4.15 1 1 0 01-.42 0z"/><path class="cls-3" d="M165.21 160l-16.77-6.18-17 6.18a.86.86 0 01-.42.05.93.93 0 01-.79-.89.88.88 0 01.15-.49.85.85 0 01.38-.32l17.64-8.19 17.46 8.18a.91.91 0 01.37.33.91.91 0 010 .9 1.06 1.06 0 01-.28.32 1 1 0 01-.4.15 1 1 0 01-.42 0z"/><path class="cls-4" d="M144.49 155.29l3.95-1.43 3.77 1.38V152l-3.77-1.77-3.95 1.77z"/><path class="cls-2" d="M148.35 160.17a1.47 1.47 0 01-1-.38 1.49 1.49 0 01-.49-.95l-.47-5v-41.22h3.91v41.25l-.47 5a1.5 1.5 0 01-1.48 1.33z"/><path class="cls-3" d="M148.35 160.17a1.47 1.47 0 01-1-.38 1.49 1.49 0 01-.49-.95l-.47-5v-41.22h3.91v41.25l-.47 5a1.5 1.5 0 01-1.48 1.33z"/><path class="cls-4" d="M150.3 112.59h-3.91v4.8h3.91z"/><path class="cls-5" d="M117.44 108.83A61.25 61.25 0 01131 107c4.7-.12 22.29 0 26.47 0a61.08 61.08 0 0115.11 1.88c3.1.79 2.14 5.27-.67 5.32h-53.65c-2.92.08-3.99-4.56-.82-5.37z"/><path class="cls-8" d="M117.44 108.83A61.25 61.25 0 01131 107c4.7-.12 22.29 0 26.47 0a61.08 61.08 0 0115.11 1.88c3.1.79 2.14 5.27-.67 5.32h-53.65c-2.92.08-3.99-4.56-.82-5.37z"/><path class="cls-5" d="M171.11 114.05a55.69 55.69 0 00-27.33 0c-3.38.87-4.82-4.36-1.44-5.22a61.31 61.31 0 0130.21 0c3.37.86 1.94 6.09-1.44 5.22z"/><g class="cls-9"><path class="cls-3" d="M171.11 114.05a55.69 55.69 0 00-27.33 0c-3.38.87-4.82-4.36-1.44-5.22a61.31 61.31 0 0130.21 0c3.37.86 1.94 6.09-1.44 5.22z"/></g><path class="cls-2" d="M145.32 47.9s-3.28-.32-2.26-5.18.93-9.49 8.16-9c0 0 5.72-1.43 7.32 3.94s4 9.19.19 10.78c-4.79 2-6-2.42-6-2.42l-7 .66z"/><path class="cls-19" d="M144.25 55c-4.15-.59-2.15 13.83-5.87 16.49C136.32 72.93 126 69.1 126 69.1l-1.45-4.65a.8.8 0 00-.19-.32.73.73 0 00-.3-.22l-2.16-.85a.74.74 0 00-.44 0 .84.84 0 00-.4.2.82.82 0 00-.24.37.74.74 0 000 .44l.78 3.44a.78.78 0 00.21.4l3 3.19s12.33 6 15.31 5c3.48-1.15 4.77-7.49 5.64-11.27.64-2.92 1.66-9.36-1.51-9.83zM139.43 141.42l1.26 9.72-3.54.1-2.55-9.39z"/><path class="cls-2" d="M137.1 150.69h4a.36.36 0 01.23.08.41.41 0 01.14.21l.82 3.78a.65.65 0 010 .24.5.5 0 01-.09.23.52.52 0 01-.16.17.62.62 0 01-.22.1h-.14c-1.67 0-3.15-.13-5.23-.13-2.46 0-1.84.29-4.73.32-1.73 0-2.05-2-1.33-2.05a8.09 8.09 0 005.64-2.66 1.46 1.46 0 011-.29z"/><path class="cls-12" d="M136.08 147.3l-1.48-5.45 4.83-.43.73 5.62z"/><path class="cls-2" d="M151.61 83.06h-5.71a31.74 31.74 0 00-1.81 8c-.29 4.06 7.52 1 7.52 1l.67-5.56z"/><path class="cls-19" d="M115.21 128l-3.77 11-3.16-.91 2.56-11.58z"/><path class="cls-2" d="M108.34 137.19l3.89 1.18a.39.39 0 01.2.13.41.41 0 01.08.24l-.15 3.86a.64.64 0 010 .24.62.62 0 01-.15.2.61.61 0 01-.22.13.5.5 0 01-.24 0 .28.28 0 01-.13 0c-1.61-.45-3-.91-5-1.43-2.38-.62-1.85-.18-4.66-.88-1.69-.41-1.5-2.4-.76-2.31a8.15 8.15 0 006.14-1.3 1.47 1.47 0 011.09-.09z"/><path class="cls-12" d="M113.15 133.94l-3.75-1 1.44-6.53 4.37 1.5z"/><path class="cls-2" d="M163 82.54s5.81 9.73 4.81 17.85-8.51 12.43-37.4-1.39c0 0-5.92 6.14-15.75 32.42l-5-1.51s5.67-30.37 10.73-39 27.58 1.51 29.28-.2c1.52-1.51.2-7.51.2-7.51z"/><path class="cls-5" d="M115.88 130.89l-1 2-6-2v-2.33zM165.35 56.54L144.88 55a2 2 0 00-.86.11 2.21 2.21 0 00-.73.48 2.15 2.15 0 00-.46.73 2.1 2.1 0 00-.1.86 24.91 24.91 0 01.35 3.44c-.18 2.17-1.33 5.41-1 6.9.31 1.18 1.56 2.53 2 3.86 1.07 2.9 1.25 12.27 1.25 12.27 6.61 1.08 18.38-.51 18.38-.51-2.66-9.53 1.34-20.63 2.53-25.25a1.07 1.07 0 000-.47 1 1 0 00-.19-.44 1.07 1.07 0 00-.35-.32 1.17 1.17 0 00-.35-.12z"/><path d="M165.35 56.54L144.88 55a2 2 0 00-.86.11 2.21 2.21 0 00-.73.48 2.15 2.15 0 00-.46.73 2.1 2.1 0 00-.1.86 24.91 24.91 0 01.35 3.44c-.18 2.17-1.33 5.41-1 6.9.31 1.18 1.56 2.53 2 3.86 1.07 2.9 1.25 12.27 1.25 12.27 6.61 1.08 18.38-.51 18.38-.51-2.66-9.53 1.34-20.63 2.53-25.25a1.07 1.07 0 000-.47 1 1 0 00-.19-.44 1.07 1.07 0 00-.35-.32 1.17 1.17 0 00-.35-.12z" style="isolation:isolate" opacity=".7" fill="#fff"/><path class="cls-12" d="M162.3 67.78L155.23 75l-10.08 2h-.07c.09 1.11.16 2.23.21 3.21 2.79 0 11.9-.19 14.53-2.48a15.07 15.07 0 003.2-4.43 43.89 43.89 0 01.63-4.84z"/><path class="cls-4" d="M127.11 101.7l-1.57-1.22s-5.57 3-2.8 11.6a101.08 101.08 0 014.91-9.19z"/><path class="cls-2" d="M151.24 107c-5.25-1.26-12-3.78-20.83-8 0 0-6.78.09-7.23 5.13S134.62 144 134.62 144l5.49-.48s-3.24-34.76-4-36.56z"/><path class="cls-4" d="M130.41 99a11.38 11.38 0 00-2.32.33 49 49 0 0012.25 7.67h10.9c-5.24-1.29-12.04-3.81-20.83-8z"/><path class="cls-5" d="M140.77 142.62l.14 2.26-6.39.5-.91-2.14z"/><path class="cls-19" d="M155.69 47l-4.47 4.38c.75 3.61-1.9 4-1.9 4s.22 1.27 3.45 1.1a20.07 20.07 0 004.3-.52c-1.95-1.6-1.66-6.34-1.38-8.96z"/><path class="cls-12" d="M151.26 53.43a4.84 4.84 0 000-2l4-3.91.39.45s-.86 4.95-4.39 5.46z"/><path class="cls-19" d="M156.07 41.2c.33 4.3.56 6.11-1.29 8.59-2.78 3.75-8.14 3.21-9.78-.91-1.44-3.7-1.73-10.11 2.21-12.39a5.89 5.89 0 012.85-.79 5.74 5.74 0 012.87.69 5.82 5.82 0 012.18 2 5.76 5.76 0 01.93 2.81z"/><path d="M147.28 45.56a9.41 9.41 0 01-.93 2.39 1.51 1.51 0 001.27.06z" fill="#a24e3f"/><path class="cls-16" d="M150.54 42.61h.07v-.05a.17.17 0 000-.07.13.13 0 000-.06v-.06a2.06 2.06 0 00-.84-.44 2.18 2.18 0 00-1 0 .18.18 0 00-.12.21.14.14 0 00.08.1.15.15 0 00.13 0 1.76 1.76 0 01.79 0 1.72 1.72 0 01.69.37h.07zM144.18 43.2a.12.12 0 00.07-.05 1.8 1.8 0 01.63-.46 1.71 1.71 0 01.77-.12.28.28 0 00.13 0 .26.26 0 00.07-.11.16.16 0 000-.13.17.17 0 00-.11-.06 2 2 0 00-1.71.69v.06a.14.14 0 000 .06.14.14 0 000 .07v.05a.2.2 0 00.09 0h.1zM149.65 44.63c0 .35-.09.67-.33.67s-.44-.22-.49-.58.1-.66.33-.66.44.23.49.57zM145.73 45.18c.05.34-.1.66-.32.66s-.45-.22-.5-.57.1-.67.32-.67.46.22.5.58z"/><path class="cls-16" d="M145.33 44.61l-.86-.12s.53.59.86.12zM149.26 44.07l-.87-.12s.52.58.87.12z"/><path class="cls-2" d="M149.93 48.15a1.84 1.84 0 00.17-.38h-.1a2.43 2.43 0 01-.57.88 2.32 2.32 0 01-.91.53v.06h.06a2.44 2.44 0 00.83-.43 2.26 2.26 0 00.52-.66zM152.74 34.91a9.35 9.35 0 00-5.62.76s-3.19 2.84-2.46 5.59a3.42 3.42 0 011.12-.54 4.08 4.08 0 01.82-2.92 6.14 6.14 0 00.1 2.73 9.13 9.13 0 014 .46 6 6 0 000-3.6 8.59 8.59 0 011.1 4.21c0 2.55 3.33 3.17 3.33 3.17s2.06-.22 2-3-1.62-6.15-4.39-6.86z"/><path class="cls-2" d="M151.53 34.77s-1.33-3.23-3.91-2.44 1.95.78 3.91 2.44z"/><path class="cls-19" d="M157.54 44.43a3.17 3.17 0 01-1.25 2.06c-.9.66-1.73-.07-1.8-1.11s.33-2.41 1.39-2.66a1.35 1.35 0 01.69 0 1.33 1.33 0 01.59.36 1.31 1.31 0 01.35.6 1.34 1.34 0 010 .69zM165.61 56.44c-2-.66-4.83 7.1-6 9.52-.48 1-1.25 3.26-1.84 5a4.83 4.83 0 01-3.28 3.19l-10.9 3.1-4.43-1.25a1.06 1.06 0 00-.5 0 1.14 1.14 0 00-.47.19L136 77.62a1.15 1.15 0 00-.39.43 1.26 1.26 0 00-.14.57 1.32 1.32 0 00.09.48 1.26 1.26 0 00.28.4 1.36 1.36 0 00.41.26 1.16 1.16 0 00.49.06l6.58-.51s10.65.61 15.31-2 10.51-19.66 6.98-20.87z"/><path class="cls-2" d="M157.12 79.85h-37.8a1 1 0 00-1 1 1 1 0 001 1h37.8a1 1 0 001-1 1 1 0 00-1-1z"/><path class="cls-3" d="M157.12 79.85h-37.8a1 1 0 00-1 1 1 1 0 001 1h37.8a1 1 0 001-1 1 1 0 00-1-1z"/><path class="cls-2" d="M119.88 81.28h12.9a.59.59 0 00.23 0 .55.55 0 00.18-.16.42.42 0 00.08-.22.45.45 0 000-.23l-7.06-20.23a1.45 1.45 0 00-.52-.68 1.47 1.47 0 00-.82-.25h-12.9a.46.46 0 00-.23.06.44.44 0 00-.17.16.42.42 0 00-.08.22.62.62 0 000 .23l7.09 20.24a1.39 1.39 0 00.51.66 1.35 1.35 0 00.8.25z"/><path class="cls-17" d="M119.88 81.28h12.9a.59.59 0 00.23 0 .55.55 0 00.18-.16.42.42 0 00.08-.22.45.45 0 000-.23l-7.06-20.23a1.45 1.45 0 00-.52-.68 1.47 1.47 0 00-.82-.25h-12.9a.46.46 0 00-.23.06.44.44 0 00-.17.16.42.42 0 00-.08.22.62.62 0 000 .23l7.09 20.24a1.39 1.39 0 00.51.66 1.35 1.35 0 00.8.25z"/><path class="cls-2" d="M119.26 81.28h12.92a.59.59 0 00.23 0 .55.55 0 00.18-.16.53.53 0 00.08-.22.45.45 0 000-.23l-7.08-20.23a1.38 1.38 0 00-.52-.67 1.39 1.39 0 00-.81-.26h-12.94a.46.46 0 00-.23.06.41.41 0 00-.17.15.47.47 0 00-.09.22.5.5 0 000 .24l7.08 20.23a1.38 1.38 0 001.32.92z"/><path d="M122.07 71.77c.45-.16.61-.9.35-1.66s-.85-1.26-1.3-1.1-.61.9-.35 1.66.84 1.25 1.3 1.1z" fill="#fff"/><path class="cls-11" d="M134.46 81.91a1 1 0 01-.73-.3 1 1 0 01-.3-.73 1.06 1.06 0 01.3-.73 1 1 0 01.73-.3h22.62a1 1 0 011 1 1 1 0 01-1 1z"/><path class="cls-2" d="M99.35 160a1.63 1.63 0 00.53-.12 1.71 1.71 0 00.44-.32 1.37 1.37 0 00.36-1L97 86.39h-3.91L98 158.76a1.38 1.38 0 00.44.89 1.41 1.41 0 00.93.36z"/><path class="cls-17" d="M99.35 160a1.63 1.63 0 00.53-.12 1.71 1.71 0 00.44-.32 1.37 1.37 0 00.36-1L97 86.39h-3.91L98 158.76a1.38 1.38 0 00.44.89 1.41 1.41 0 00.93.36z"/><path class="cls-4" d="M97 86.39h-3.91l.33 4.81h3.83z"/><path class="cls-2" d="M44.66 160a1.63 1.63 0 01-.53-.12 1.43 1.43 0 01-.44-.32 1.3 1.3 0 01-.28-.46 1.27 1.27 0 01-.08-.54L47 86.39h4l-4.9 72.37a1.32 1.32 0 01-.44.91 1.37 1.37 0 01-1 .34z"/><path class="cls-17" d="M44.66 160a1.63 1.63 0 01-.53-.12 1.43 1.43 0 01-.44-.32 1.3 1.3 0 01-.28-.46 1.27 1.27 0 01-.08-.54L47 86.39h4l-4.9 72.37a1.32 1.32 0 01-.44.91 1.37 1.37 0 01-1 .34z"/><path class="cls-4" d="M46.75 91.2h3.84l.32-4.81H47z"/><path class="cls-2" d="M189.83 84.15H43.43v2h146.4z"/><path class="cls-3" d="M189.83 84.15H43.43v2h146.4z"/><path class="cls-5" d="M195.48 81.92H38.42v2.26h157.06z"/><path class="cls-2" d="M189.48 160a1.63 1.63 0 00.53-.12 1.71 1.71 0 00.44-.32 1.4 1.4 0 00.28-.47 1.37 1.37 0 00.08-.53l-3.7-72.2h-3.91l4.9 72.36a1.34 1.34 0 00.42.93 1.41 1.41 0 00.96.35z"/><path class="cls-17" d="M189.48 160a1.63 1.63 0 00.53-.12 1.71 1.71 0 00.44-.32 1.4 1.4 0 00.28-.47 1.37 1.37 0 00.08-.53l-3.7-72.2h-3.91l4.9 72.36a1.34 1.34 0 00.42.93 1.41 1.41 0 00.96.35z"/><path class="cls-4" d="M187.14 86.39h-3.92l.33 4.81h3.83z"/><path class="cls-2" d="M134.79 160a1.63 1.63 0 01-.53-.12 1.43 1.43 0 01-.44-.32 1.36 1.36 0 01-.28-.46 1.45 1.45 0 01-.08-.54l3.68-72.18h3.91l-4.89 72.37a1.37 1.37 0 01-1.37 1.25z"/><path class="cls-17" d="M134.79 160a1.63 1.63 0 01-.53-.12 1.43 1.43 0 01-.44-.32 1.36 1.36 0 01-.28-.46 1.45 1.45 0 01-.08-.54l3.68-72.18h3.91l-4.89 72.37a1.37 1.37 0 01-1.37 1.25z"/><path class="cls-4" d="M136.89 91.2h3.83l.32-4.81h-3.91zM190.28 84.1h-56.92v2.29h56.92z"/><path class="cls-8" d="M195.4 81.81h-67.16v2.29h67.16z"/><path fill="none" d="M0 0h200v200H0z"/></g></g></svg>